<?xml version="1.0" standalone="no"?>
<!DOCTYPE svg PUBLIC "-//W3C//DTD SVG 20010904//EN"
 "http://www.w3.org/TR/2001/REC-SVG-20010904/DTD/svg10.dtd">
<svg version="1.0" xmlns="http://www.w3.org/2000/svg"
 width="1024.000000pt" height="1024.000000pt" viewBox="0 0 1024.000000 1024.000000"
 preserveAspectRatio="xMidYMid meet">

<g transform="translate(0.000000,1024.000000) scale(0.100000,-0.100000)"
fill="#000000" stroke="none">
<path d="M4482 7617 c-7 -8 -9 -46 -6 -106 l6 -93 -86 46 c-48 25 -93 43 -101
40 -21 -8 -28 -46 -22 -114 3 -31 2 -62 -2 -68 -4 -7 -34 5 -81 34 -47 28 -84
44 -100 42 -25 -3 -25 -4 -28 -115 -1 -62 -6 -113 -10 -113 -4 0 -48 20 -96
45 -80 42 -90 45 -110 32 -18 -13 -21 -25 -24 -106 -1 -50 -7 -91 -12 -91 -5
0 -38 15 -74 34 -75 40 -108 39 -127 -5 -10 -27 -9 -32 11 -54 13 -14 32 -27
43 -31 11 -3 94 -42 184 -85 91 -43 166 -79 168 -79 1 0 67 -31 146 -69 79
-38 164 -78 189 -89 25 -11 143 -68 262 -125 179 -87 220 -110 228 -132 5 -14
10 -70 10 -123 0 -117 14 -148 87 -183 43 -22 61 -24 179 -24 128 0 132 1 180
30 62 39 73 68 73 201 1 83 4 104 19 117 15 14 182 97 497 247 55 26 156 75
225 108 69 33 193 92 275 131 229 108 227 107 209 158 -14 42 -53 42 -135 -1
l-69 -36 0 86 c0 47 -5 94 -10 105 -17 30 -56 23 -146 -27 l-84 -45 0 116 c0
145 -2 146 -122 82 l-88 -47 0 79 c0 44 -3 86 -6 95 -10 26 -52 18 -123 -24
-37 -22 -70 -40 -73 -40 -3 0 -5 40 -4 90 1 49 -1 95 -5 101 -14 24 -57 -3
-154 -98 -116 -113 -186 -197 -305 -366 -47 -66 -91 -122 -97 -125 -10 -3 -13
57 -13 277 0 268 -1 282 -20 301 -25 25 -52 26 -73 2 -15 -16 -17 -52 -17
-295 0 -259 -1 -277 -18 -277 -11 0 -36 28 -67 78 -63 98 -161 228 -239 315
-60 68 -212 207 -226 207 -4 0 -12 -6 -18 -13z m1372 -259 c15 -58 8 -74 -46
-103 -189 -101 -277 -159 -387 -255 -92 -81 -113 -93 -136 -76 -17 12 -15 17
28 83 71 109 219 226 394 312 142 70 138 69 147 39z m-1356 -33 c117 -55 241
-142 318 -221 70 -72 122 -154 109 -174 -16 -25 -56 -7 -127 58 -98 88 -210
167 -333 235 l-100 55 -3 47 -3 48 33 -7 c18 -3 66 -22 106 -41z m-41 -220
c337 -176 477 -283 599 -458 21 -31 42 -57 46 -57 3 0 38 39 76 88 76 95 150
168 227 224 122 88 628 349 645 332 12 -13 22 -77 13 -90 -5 -6 -100 -58 -213
-116 -250 -128 -305 -161 -401 -234 -67 -51 -159 -136 -159 -147 0 -2 62 27
138 64 75 38 175 87 222 108 47 22 177 84 290 139 296 143 369 176 376 169 3
-3 7 -29 8 -58 l1 -52 -250 -119 c-543 -259 -792 -385 -808 -409 -13 -18 -17
-48 -17 -139 0 -63 -4 -120 -8 -127 -21 -34 -172 -46 -237 -19 l-33 14 -4 133
-3 132 -31 25 c-27 21 -261 139 -579 289 -91 43 -294 139 -442 210 -30 14 -33
19 -33 59 0 58 14 63 94 31 97 -39 444 -204 710 -337 253 -126 265 -126 111 6
-101 86 -211 154 -430 265 l-210 106 -3 38 c-6 66 -1 68 75 40 37 -14 141 -64
230 -110z"/>
<path d="M3605 6890 c-3 -5 -5 -368 -5 -806 0 -585 3 -801 12 -811 6 -8 77
-46 157 -84 80 -39 327 -159 549 -266 221 -108 406 -193 410 -189 4 4 7 371 6
814 l0 807 -40 25 c-21 14 -97 54 -169 87 -404 190 -577 273 -730 349 -94 46
-173 84 -177 84 -4 0 -9 -4 -13 -10z"/>
<path d="M6479 6844 c-226 -110 -677 -327 -819 -394 -85 -40 -163 -80 -172
-88 -17 -14 -18 -66 -18 -823 0 -527 3 -810 10 -814 5 -3 22 1 37 9 16 9 249
124 518 256 270 133 505 251 522 263 l33 22 0 808 c0 444 -4 807 -8 807 -5 0
-51 -21 -103 -46z"/>
<path d="M2996 6278 c-25 -35 -20 -64 17 -92 48 -36 259 -137 281 -134 10 2
28 16 40 31 34 46 12 71 -139 149 -141 73 -175 80 -199 46z"/>
<path d="M6992 6227 c-79 -40 -148 -80 -153 -88 -24 -37 10 -89 58 -89 15 0
91 31 170 70 121 59 144 74 149 97 4 16 2 36 -7 52 -25 44 -60 38 -217 -42z"/>
<path d="M4840 5968 c0 -109 13 -143 64 -173 23 -14 65 -32 92 -40 52 -16 170
-21 219 -9 50 12 119 51 135 76 16 25 31 208 17 208 -5 0 -29 -12 -54 -27 -40
-23 -59 -27 -155 -31 -126 -5 -215 9 -275 44 l-43 25 0 -73z"/>
<path d="M2881 5801 c-28 -28 -27 -74 1 -101 12 -11 29 -20 37 -20 8 0 78 -5
155 -12 l139 -11 19 22 c21 27 23 60 5 85 -11 15 -39 21 -143 32 -71 7 -143
16 -160 19 -25 6 -37 2 -53 -14z"/>
<path d="M7085 5794 c-129 -15 -145 -23 -145 -74 0 -15 9 -35 20 -45 19 -18
29 -18 173 -6 84 8 160 18 169 22 23 12 33 55 22 88 -9 23 -15 26 -64 27 -30
1 -109 -4 -175 -12z"/>
<path d="M4842 5533 c3 -136 6 -163 23 -191 57 -94 277 -121 422 -51 71 34 77
52 83 237 3 89 2 162 -1 162 -3 0 -33 -13 -65 -30 -85 -43 -180 -55 -275 -36
-40 9 -97 27 -125 41 -28 14 -54 25 -59 25 -4 0 -5 -71 -3 -157z"/>
<path d="M3040 5354 c-99 -23 -149 -39 -158 -51 -19 -27 -11 -73 18 -95 25
-18 27 -18 140 11 63 16 131 32 151 35 77 13 113 72 69 116 -26 26 -45 24
-220 -16z"/>
<path d="M6934 5365 c-21 -33 -11 -71 24 -89 32 -17 265 -76 298 -76 28 0 54
35 54 72 0 34 -29 54 -96 68 -27 5 -85 19 -129 30 -107 27 -131 26 -151 -5z"/>
<path d="M4841 5113 c0 -127 12 -160 70 -199 92 -61 254 -71 362 -21 81 37 91
58 97 199 3 75 1 118 -5 118 -5 0 -23 -9 -40 -20 -16 -11 -52 -26 -80 -34
-146 -41 -238 -29 -397 52 -5 2 -8 -41 -7 -95z"/>
<path d="M3234 4994 c-118 -70 -144 -94 -144 -128 0 -31 43 -70 69 -63 37 9
250 151 259 172 17 37 -17 85 -61 85 -7 0 -63 -30 -123 -66z"/>
<path d="M6782 5030 c-34 -14 -48 -54 -29 -83 19 -30 236 -167 263 -167 29 0
66 43 62 72 -3 23 -64 69 -193 147 -64 38 -75 42 -103 31z"/>
<path d="M4840 4772 c0 -73 12 -97 62 -120 125 -60 398 -42 455 30 9 11 26
138 18 138 -1 0 -34 -15 -71 -32 -66 -32 -74 -33 -189 -33 -125 0 -121 0 -262
62 -10 4 -13 -9 -13 -45z"/>
<path d="M3951 4372 c-58 -1 -111 -8 -118 -14 -7 -6 -17 -27 -23 -47 -61 -223
-132 -456 -141 -465 -5 -6 -51 112 -136 354 l-58 165 -51 3 c-33 2 -55 -2 -61
-10 -6 -7 -46 -113 -88 -236 -42 -123 -82 -237 -89 -253 l-12 -29 -22 62 c-12
35 -42 135 -67 223 -25 88 -53 179 -61 203 l-16 43 -146 -3 c-138 -3 -147 -4
-150 -23 -1 -11 71 -240 160 -510 l163 -490 106 -3 106 -3 17 34 c9 19 38 97
65 173 67 191 82 225 94 221 5 -1 44 -93 86 -202 42 -110 80 -206 84 -212 6
-9 38 -13 102 -13 85 0 95 2 109 22 19 26 326 947 326 976 0 37 -11 39 -179
34z"/>
<path d="M4654 4360 c-140 -36 -240 -107 -315 -223 -126 -194 -110 -462 37
-626 165 -184 458 -235 678 -118 213 113 316 341 261 576 -22 94 -71 177 -147
253 -137 136 -328 187 -514 138z m191 -271 c60 -17 121 -64 152 -117 24 -40
28 -57 27 -122 0 -87 -22 -138 -78 -187 -47 -42 -95 -56 -176 -51 -84 4 -138
38 -185 113 -26 43 -30 57 -30 124 0 65 4 83 27 122 32 54 77 91 138 112 54
19 73 20 125 6z"/>
<path d="M5567 4363 c-4 -3 -7 -230 -7 -503 0 -372 3 -499 12 -508 8 -8 51
-12 129 -12 94 0 121 3 133 16 13 12 16 40 16 140 l0 124 38 0 c38 0 40 -2
129 -128 50 -70 97 -133 106 -140 11 -9 59 -12 178 -10 140 3 164 5 167 19 3
17 -19 49 -145 215 l-82 108 54 50 c180 168 126 479 -101 585 -93 44 -146 51
-389 51 -128 0 -235 -3 -238 -7z m463 -288 c64 -33 86 -95 55 -155 -22 -43
-43 -50 -144 -50 l-91 0 0 103 c0 57 3 107 7 110 13 13 144 7 173 -8z"/>
<path d="M6667 4363 c-4 -3 -7 -230 -7 -503 0 -372 3 -499 12 -508 15 -15 432
-16 498 -1 87 19 204 86 268 152 108 113 147 221 140 388 -4 100 -7 114 -42
184 -49 99 -127 183 -214 228 -114 60 -157 67 -417 67 -128 0 -235 -3 -238 -7z
m450 -284 c159 -59 213 -253 106 -379 -52 -60 -104 -83 -188 -84 l-70 -1 -3
238 -2 237 64 0 c36 0 77 -5 93 -11z"/>
<path d="M3232 3048 c-17 -17 -17 -409 0 -426 8 -8 55 -12 144 -12 143 0 157
5 157 56 0 47 -24 59 -113 56 l-80 -3 0 148 c0 170 -8 193 -64 193 -17 0 -37
-5 -44 -12z"/>
<path d="M3738 3049 c-16 -9 -18 -30 -18 -212 0 -145 3 -206 12 -215 8 -8 58
-12 160 -12 l148 0 6 26 c4 15 3 39 -2 53 -9 25 -12 26 -107 29 -94 3 -97 3
-97 26 0 21 5 24 55 28 30 3 58 8 61 11 9 9 8 86 -1 95 -3 4 -31 6 -61 5 -53
-2 -54 -1 -54 26 0 26 4 29 46 35 26 3 68 6 94 6 52 0 60 8 60 60 0 19 -7 33
-19 40 -25 13 -260 13 -283 -1z"/>
<path d="M4371 3046 c-11 -13 -65 -149 -127 -319 -14 -37 -24 -78 -22 -90 3
-19 9 -22 53 -22 47 0 51 2 60 32 6 18 13 34 15 36 3 2 33 7 67 10 l62 7 31
-45 c26 -38 36 -45 65 -45 43 0 65 9 65 26 0 16 -149 393 -163 412 -13 17 -92
15 -106 -2z m68 -198 c9 -24 8 -34 -1 -40 -34 -21 -46 -2 -32 50 9 31 20 28
33 -10z"/>
<path d="M4858 3050 c-16 -10 -18 -31 -18 -213 0 -145 3 -206 12 -215 13 -13
66 -16 92 -6 12 5 16 21 16 65 0 80 19 78 71 -6 l41 -65 59 0 c72 0 74 8 23
90 l-35 58 31 45 c59 83 40 181 -43 228 -32 18 -60 23 -136 26 -59 2 -103 0
-113 -7z m196 -126 c34 -33 15 -62 -47 -70 l-47 -7 0 47 0 46 39 0 c23 0 46
-7 55 -16z"/>
<path d="M5417 3042 c-15 -16 -17 -44 -16 -198 1 -230 1 -229 64 -229 l50 0 5
108 5 108 79 -93 c100 -117 112 -128 146 -128 62 0 60 -7 60 219 0 148 -3 210
-12 219 -17 17 -74 15 -92 -4 -12 -12 -16 -38 -16 -115 0 -65 -4 -98 -10 -94
-6 3 -45 50 -87 103 -42 53 -84 102 -92 109 -24 18 -66 16 -84 -5z"/>
<path d="M6066 3044 c-13 -13 -16 -46 -16 -205 0 -112 4 -198 10 -210 10 -17
23 -19 161 -19 l149 0 11 27 c6 15 6 36 1 52 -8 25 -11 26 -110 29 -99 3 -102
3 -102 26 0 25 29 36 91 36 31 0 44 25 37 71 -3 22 -9 24 -65 27 -62 3 -63 4
-63 31 0 26 4 29 46 35 26 3 69 6 95 6 38 0 51 4 59 19 14 28 12 57 -6 75 -23
23 -275 23 -298 0z"/>
<path d="M6618 3050 c-16 -10 -18 -31 -18 -214 0 -230 0 -229 72 -224 l43 3 3
63 c4 83 23 83 77 -1 l40 -62 54 -3 c30 -2 58 1 64 7 7 7 -4 31 -33 75 l-42
66 31 47 c58 88 40 182 -44 226 -46 24 -217 36 -247 17z m188 -118 c14 -9 23
-47 15 -61 -4 -6 -28 -14 -54 -17 l-47 -7 0 47 0 46 38 0 c20 0 42 -4 48 -8z"/>
</g>
</svg>
